# xmcd CD database file
#
# Track frame offsets:
#	150
#	12215
#	33012
#	51417
#	67155
#	82975
#	94695
#	114125
#	129662
#	149782
#	167907
#	178115
#	195570
#	216070
#	230215
#	248302
#	268635
#	290692
#
# Disc length: 4043 seconds
#
# Revision: 9
# Processed by: cddbd v1.5.2PL0 Copyright (c) Steve Scherf et al.
# Submitted via: CDex 1.70beta2
#
DISCID=060fc912
DTITLE=Various Artist - Feel 3 ～Peace Of Mind～
DYEAR=2002
DGENRE=New Age
TTITLE0=アディエマス　- 静寂
TTITLE1=姫神 - 遥かなる旅路
TTITLE2=ザンフィル - ホール・ニュー・ワールド
TTITLE3=吉川展生・中西俊博・吉川忠英・山木秀夫 - 地上の星
TTITLE4=サラ・ブライトマン - 私を泣かせてください
TTITLE5=エンニオ・モリコーネ - マレーナ
TTITLE6=東儀秀樹 - 蒼き海の道
TTITLE7=服部克久 - 自由の大地（Ending Version）
TTITLE8=チェン・ミン - 燕になりたい
TTITLE9=ヌーノ - アマポーラ
TTITLE10=ヤン・ティルセン - La Valse D'amelie
TTITLE11=ヤニー - Adagio In C Minor
TTITLE12=エニグマ - Beyond The Invisible
TTITLE13=マイク・オールドフィールド - Etude
TTITLE14=IZZY - Song Of Our Homeland
TTITLE15=島　健 - First Love
TTITLE16=エルボスコ - Nirvana
TTITLE17=千住　明 - Dry And Wet
EXTD=YEAR: 2002
EXTT0=
EXTT1=
EXTT2=
EXTT3=
EXTT4=
EXTT5=
EXTT6=
EXTT7=
EXTT8=
EXTT9=
EXTT10=
EXTT11=
EXTT12=
EXTT13=
EXTT14=
EXTT15=
EXTT16=
EXTT17=
PLAYORDER=
